<?xml version="1.0" standalone="no"?>
<!DOCTYPE svg PUBLIC "-//W3C//DTD SVG 1.1//EN" "http://www.w3.org/Graphics/SVG/1.1/DTD/svg11.dtd" >
<svg xmlns="http://www.w3.org/2000/svg" xmlns:xlink="http://www.w3.org/1999/xlink" version="1.1">
<metadata></metadata>
<defs>
<font id="idroidregular" horiz-adv-x="1550" >
<font-face units-per-em="2048" ascent="1638" descent="-410" />
<missing-glyph horiz-adv-x="1000" />
<glyph unicode="&#xd;" horiz-adv-x="508" />
<glyph horiz-adv-x="0" />
<glyph horiz-adv-x="0" />
<glyph unicode=" "  horiz-adv-x="1000" />
<glyph unicode="&#x09;" horiz-adv-x="1000" />
<glyph unicode="&#xa0;" horiz-adv-x="1000" />
<glyph unicode="!" horiz-adv-x="450" d="M0 150q0 62 44 106t106 44t106 -44t44 -106t-44 -106t-106 -44t-106 44t-44 106zM0 400v1000h300v-1000h-300z" />
<glyph unicode="&#x22;" horiz-adv-x="800" d="M0 900v350q0 62 44 106t106 44t106 -44t44 -106q0 -50 -50 -200l-50 -150h-200zM350 900v350q0 62 44 106t106 44t106 -44t44 -106q0 -50 -50 -200l-50 -150h-200z" />
<glyph unicode="#" horiz-adv-x="1250" d="M0 350v300h200v100h-200v300h200v200h300v-200h100v200h300v-200h200v-300h-200v-100h200v-300h-200v-200h-300v200h-100v-200h-300v200h-200zM500 650h100v100h-100v-100z" />
<glyph unicode="$" horiz-adv-x="1450" d="M0 50v300h800q41 0 70.5 29.5t29.5 70.5t-29.5 70.5t-70.5 29.5h-400q-166 0 -283 117t-117 283t117 283t283 117h50v100h300v-100h450v-300h-800q-41 0 -70.5 -29.5t-29.5 -70.5t29.5 -70.5t70.5 -29.5h400q166 0 283 -117t117 -283t-117 -283t-283 -117h-50v-100h-300 v100h-450z" />
<glyph unicode="%" horiz-adv-x="1450" d="M0 -1l375 554q-144 15 -250 122q-125 124 -125 300t124.5 300.5t300.5 124.5t301 -124q44 -45 73 -96l150 222l351 -1l-375 -554q144 -15 251 -121q124 -125 124 -301t-124.5 -300.5t-300.5 -124.5t-300 125q-46 45 -74 96l-151 -222h-350zM300 975q0 -52 36.5 -88.5 t88.5 -36.5t88.5 36.5t36.5 88.5t-36.5 88.5t-88.5 36.5t-88.5 -36.5t-36.5 -88.5zM750 425q0 -52 36.5 -88.5t88.5 -36.5t88.5 36.5t36.5 88.5t-36.5 88.5t-88.5 36.5t-88.5 -36.5t-36.5 -88.5z" />
<glyph unicode="&#x26;" horiz-adv-x="1450" d="M0 425q0 158 101 275q-101 117 -101 275q0 176 124.5 300.5t300.5 124.5h275v-300h-275q-52 0 -88.5 -36.5t-36.5 -88.5t36.5 -88.5t88.5 -36.5l375 1v199h300v-200h200v-300h-200l1 -125q0 -176 -124.5 -300.5t-300.5 -124.5h-251q-176 0 -300.5 124.5t-124.5 300.5z M300 425q0 -52 36.5 -88.5t88.5 -36.5h251q52 0 88 36.5t36 88.5v125h-375q-52 0 -88.5 -36.5t-36.5 -88.5z" />
<glyph unicode="'" horiz-adv-x="450" d="M0 900v350q0 62 44 106t106 44t106 -44t44 -106q0 -50 -50 -200l-50 -150h-200z" />
<glyph unicode="(" horiz-adv-x="650" d="M0 325v750q0 176 124.5 300.5t300.5 124.5h75v-300h-75q-52 0 -88.5 -36.5t-36.5 -88.5v-750q0 -52 36.5 -88.5t88.5 -36.5h75v-300h-75q-176 0 -300.5 124.5t-124.5 300.5z" />
<glyph unicode=")" horiz-adv-x="650" d="M0 -100v300h75q52 0 88.5 36.5t36.5 88.5v750q0 52 -36.5 88.5t-88.5 36.5h-75v300h75q176 0 300.5 -124.5t124.5 -300.5v-750q0 -176 -124.5 -300.5t-300.5 -124.5h-75z" />
<glyph unicode="*" horiz-adv-x="1350" d="M0 525v375q0 31 22 53t53 22t53 -22t22 -53v-375q0 -31 -22 -53t-53 -22t-53 22t-22 53zM200 375v600h800v-600q0 -50 -50 -50l-100 1v-251q0 -31 -22 -53t-53 -22t-53 22t-22 53v250h-200v-250q0 -31 -22 -53t-53 -22t-53 22t-22 53v250h-100q-50 0 -50 50zM200 1025 q0 124 117 212q48 36 104 57l-71 106h25l66 -99q73 24 159 24t159 -24l66 99h25l-71 -106q56 -21 104 -57q117 -88 117 -212h-800zM400 1150q0 -21 14.5 -35.5t35.5 -14.5t35.5 14.5t14.5 35.5t-14.5 35.5t-35.5 14.5t-35.5 -14.5t-14.5 -35.5zM700 1150q0 -21 14.5 -35.5 t35.5 -14.5t35.5 14.5t14.5 35.5t-14.5 35.5t-35.5 14.5t-35.5 -14.5t-14.5 -35.5zM1050 525v375q0 31 22 53t53 22t53 -22t22 -53v-375q0 -31 -22 -53t-53 -22t-53 22t-22 53z" />
<glyph unicode="+" horiz-adv-x="1050" d="M0 550v300h300v350h300v-350h300v-300h-300v-350h-300v350h-300z" />
<glyph unicode="," horiz-adv-x="450" d="M0 150q0 62 44 106t106 44t106 -44t44 -106q0 -50 -50 -200l-50 -150h-200v350z" />
<glyph unicode="-" horiz-adv-x="1050" d="M0 550v300h900v-300h-900z" />
<glyph unicode="." horiz-adv-x="450" d="M0 150q0 62 44 106t106 44t106 -44t44 -106t-44 -106t-106 -44t-106 44t-44 106z" />
<glyph unicode="/" horiz-adv-x="1450" d="M0 -1l949 1403l351 -1l-950 -1402h-350z" />
<glyph unicode="0" horiz-adv-x="1450" d="M0 700q0 290 190.5 495t459.5 205t459.5 -205t190.5 -495t-190.5 -495t-459.5 -205t-459.5 205t-190.5 495zM300 700q0 -166 102.5 -283t247.5 -117t247.5 117t102.5 283t-102.5 283t-247.5 117t-247.5 -117t-102.5 -283z" />
<glyph unicode="1" horiz-adv-x="650" d="M0 1100v300h500v-1400h-300v1100h-200z" />
<glyph unicode="2" horiz-adv-x="1450" d="M0 0v425q0 176 124.5 300.5t300.5 124.5h450q52 0 88.5 36.5t36.5 88.5t-36.5 88.5t-88.5 36.5h-875v300h875q176 0 300.5 -124.5t124.5 -300.5t-124.5 -300.5t-300.5 -124.5h-450q-52 0 -88.5 -36.5t-36.5 -88.5v-125h1000v-300h-1300z" />
<glyph unicode="3" horiz-adv-x="1450" d="M0 0v300h875q52 0 88.5 36.5t36.5 88.5t-36.5 88.5t-88.5 36.5h-675v300h675q52 0 88.5 36.5t36.5 88.5t-36.5 88.5t-88.5 36.5h-875v300h875q176 0 300.5 -124.5t124.5 -300.5q0 -158 -101 -275q101 -117 101 -275q0 -176 -124.5 -300.5t-300.5 -124.5h-875z" />
<glyph unicode="4" d="M0 350v1050h300v-750h600v750h300v-750h200v-300h-200v-350h-300v350h-900z" />
<glyph unicode="5" horiz-adv-x="1450" d="M0 0v300h875q52 0 88.5 36.5t36.5 88.5t-36.5 88.5t-88.5 36.5h-875v850h1300v-300h-1000v-250h575q176 0 300.5 -124.5t124.5 -300.5t-124.5 -300.5t-300.5 -124.5h-875z" />
<glyph unicode="6" horiz-adv-x="1450" d="M0 425v550q0 176 124.5 300.5t300.5 124.5h675v-300h-675q-52 0 -88.5 -36.5t-36.5 -88.5v-550q0 -52 36.5 -88.5t88.5 -36.5h450q52 0 88.5 36.5t36.5 88.5v100q0 52 -36.5 88.5t-88.5 36.5h-475v300h475q176 0 300.5 -124.5t124.5 -300.5v-100q0 -176 -124.5 -300.5 t-300.5 -124.5h-450q-176 0 -300.5 124.5t-124.5 300.5z" />
<glyph unicode="7" horiz-adv-x="1450" d="M0 1100v300h1300v-300l-825 -1100h-375l825 1100h-925z" />
<glyph unicode="8" horiz-adv-x="1450" d="M0 425q0 158 101 275q-101 117 -101 275q0 176 124.5 300.5t300.5 124.5h450q176 0 300.5 -124.5t124.5 -300.5q0 -158 -101 -275q101 -117 101 -275q0 -176 -124.5 -300.5t-300.5 -124.5h-450q-176 0 -300.5 124.5t-124.5 300.5zM300 425q0 -52 36.5 -88.5t88.5 -36.5 h450q52 0 88.5 36.5t36.5 88.5t-36.5 88.5t-88.5 36.5h-450q-52 0 -88.5 -36.5t-36.5 -88.5zM300 975q0 -52 36.5 -88.5t88.5 -36.5h450q52 0 88.5 36.5t36.5 88.5t-36.5 88.5t-88.5 36.5h-450q-52 0 -88.5 -36.5t-36.5 -88.5z" />
<glyph unicode="9" horiz-adv-x="1450" d="M0 875v100q0 176 124.5 300.5t300.5 124.5h450q176 0 300.5 -124.5t124.5 -300.5v-550q0 -176 -124.5 -300.5t-300.5 -124.5h-675v300h675q52 0 88.5 36.5t36.5 88.5v550q0 52 -36.5 88.5t-88.5 36.5h-450q-52 0 -88.5 -36.5t-36.5 -88.5v-100q0 -52 36.5 -88.5 t88.5 -36.5h475v-300h-475q-176 0 -300.5 124.5t-124.5 300.5z" />
<glyph unicode=":" horiz-adv-x="450" d="M0 150q0 62 44 106t106 44t106 -44t44 -106t-44 -106t-106 -44t-106 44t-44 106zM0 700q0 62 44 106t106 44t106 -44t44 -106t-44 -106t-106 -44t-106 44t-44 106z" />
<glyph unicode=";" horiz-adv-x="450" d="M0 150q0 62 44 106t106 44t106 -44t44 -106q0 -50 -50 -200l-50 -150h-200v350zM0 700q0 62 44 106t106 44t106 -44t44 -106t-44 -106t-106 -44t-106 44t-44 106z" />
<glyph unicode="&#x3c;" horiz-adv-x="1150" d="M0 525v350l1000 350v-325l-571 -200l571 -200v-325z" />
<glyph unicode="=" horiz-adv-x="1050" d="M0 350v300h900v-300h-900zM0 750v300h900v-300h-900z" />
<glyph unicode="&#x3e;" horiz-adv-x="1150" d="M0 175v325l571 200l-571 200v325l1000 -350v-350z" />
<glyph unicode="?" horiz-adv-x="1450" d="M0 1100v300h875q176 0 300.5 -124.5t124.5 -300.5t-124.5 -300.5t-300.5 -124.5h-250q-52 0 -88.5 -36.5t-36.5 -88.5v-25h-300v25q0 176 124.5 300.5t300.5 124.5h250q52 0 88.5 36.5t36.5 88.5t-36.5 88.5t-88.5 36.5h-875zM200 150q0 62 44 106t106 44t106 -44 t44 -106t-44 -106t-106 -44t-106 44t-44 106z" />
<glyph unicode="@" d="M0 0v750q0 269 205 459.5t495 190.5t495 -190.5t205 -459.5v-250q0 -207 -146.5 -353.5t-353.5 -146.5t-353.5 146.5t-146.5 353.5t146.5 353.5t353.5 146.5q46 0 83 -2q-117 102 -283 102t-283 -102.5t-117 -247.5v-750h-300zM700 500q0 -83 58.5 -141.5t141.5 -58.5 t141.5 58.5t58.5 141.5t-58.5 141.5t-141.5 58.5t-141.5 -58.5t-58.5 -141.5z" />
<glyph unicode="A" d="M0 700q0 290 190.5 495t459.5 205h750v-1400h-300v1100h-450q-145 0 -247.5 -117t-102.5 -283t102.5 -283t247.5 -117h350v-300h-350q-269 0 -459.5 205t-190.5 495z" />
<glyph unicode="B" horiz-adv-x="1450" d="M0 0v300h875q52 0 88.5 36.5t36.5 88.5t-36.5 88.5t-88.5 36.5h-875v300h875q52 0 88.5 36.5t36.5 88.5t-36.5 88.5t-88.5 36.5h-875v300h875q176 0 300.5 -124.5t124.5 -300.5q0 -158 -101 -275q101 -117 101 -275q0 -176 -124.5 -300.5t-300.5 -124.5h-875z" />
<glyph unicode="C" horiz-adv-x="1450" d="M0 700q0 290 190.5 495t459.5 205h650v-300h-650q-145 0 -247.5 -117t-102.5 -283t102.5 -283t247.5 -117h650v-300h-650q-269 0 -459.5 205t-190.5 495z" />
<glyph unicode="D" horiz-adv-x="1450" d="M0 0v300h650q145 0 247.5 117t102.5 283t-102.5 283t-247.5 117h-650v300h650q269 0 459.5 -205t190.5 -495t-190.5 -495t-459.5 -205h-650z" />
<glyph unicode="E" horiz-adv-x="1450" d="M0 425q0 158 101 275q-101 117 -101 275q0 176 124.5 300.5t300.5 124.5h875v-300h-875q-52 0 -88.5 -36.5t-36.5 -88.5t36.5 -88.5t88.5 -36.5h875v-300h-875q-52 0 -88.5 -36.5t-36.5 -88.5t36.5 -88.5t88.5 -36.5h875v-300h-875q-176 0 -300.5 124.5t-124.5 300.5z " />
<glyph unicode="F" horiz-adv-x="1450" d="M0 0v975q0 176 124.5 300.5t300.5 124.5h875v-300h-875q-52 0 -88.5 -36.5t-36.5 -88.5v-975h-300zM400 550v300h900v-300h-900z" />
<glyph unicode="G" horiz-adv-x="1450" d="M0 700q0 290 190.5 495t459.5 205h650v-300h-650q-145 0 -247.5 -117t-102.5 -283t102.5 -283t247.5 -117h350v250h-200v300h500v-850h-650q-269 0 -459.5 205t-190.5 495z" />
<glyph unicode="H" d="M0 0v1400h300v-550h800v550h300v-1400h-300v550h-800v-550h-300z" />
<glyph unicode="I" horiz-adv-x="450" d="M0 0v1400h300v-1400h-300z" />
<glyph unicode="J" d="M0 650v100h300v-100q0 -145 117 -247.5t283 -102.5t283 102.5t117 247.5v450h-200v300h500v-750q0 -269 -205 -459.5t-495 -190.5t-495 190.5t-205 459.5z" />
<glyph unicode="K" d="M0 0v1400h300v-672l725 672h375l-596 -556l596 -844h-350l-457 647l-293 -274v-373h-300z" />
<glyph unicode="L" horiz-adv-x="1450" d="M0 0v1400h300v-1100h1000v-300h-1300z" />
<glyph unicode="M" horiz-adv-x="1850" d="M0 0v900q0 207 146.5 353.5t353.5 146.5q205 0 350 -143q145 143 350 143q207 0 353.5 -146.5t146.5 -353.5v-900h-300v900q0 83 -58.5 141.5t-141.5 58.5t-141.5 -58.5t-58.5 -141.5v-900h-300v900q0 83 -58.5 141.5t-141.5 58.5t-141.5 -58.5t-58.5 -141.5v-900h-300z " />
<glyph unicode="N" d="M0 0v750q0 269 205 459.5t495 190.5t495 -190.5t205 -459.5v-750h-300v750q0 145 -117 247.5t-283 102.5t-283 -102.5t-117 -247.5v-750h-300z" />
<glyph unicode="O" d="M0 700q0 290 205 495t495 205t495 -205t205 -495t-205 -495t-495 -205t-495 205t-205 495zM300 700q0 -166 117 -283t283 -117t283 117t117 283t-117 283t-283 117t-283 -117t-117 -283z" />
<glyph unicode="P" horiz-adv-x="1450" d="M0 0v800h850q62 0 106 44t44 106t-44 106t-106 44h-850v300h850q186 0 318 -132t132 -318t-132 -318t-318 -132h-550v-500h-300z" />
<glyph unicode="Q" d="M0 700q0 290 205 495t495 205t495 -205t205 -495q0 -260 -165 -452l165 -248l-351 1l-44 66q-139 -67 -305 -67q-290 0 -495 205t-205 495zM300 700q0 -166 117 -283t283 -117q72 0 135 22l-185 279h350l57 -85q43 83 43 184q0 166 -117 283t-283 117t-283 -117 t-117 -283z" />
<glyph unicode="R" horiz-adv-x="1450" d="M0 500v300h850q62 0 106 44t44 106t-44 106t-106 44h-850v300h850q186 0 318 -132t132 -318q0 -173 -115 -300q115 -127 115 -300v-350h-300v350q0 62 -44 106t-106 44h-850z" />
<glyph unicode="S" horiz-adv-x="1450" d="M0 0v300h875q52 0 88.5 36.5t36.5 88.5t-36.5 88.5t-88.5 36.5h-450q-176 0 -300.5 124.5t-124.5 300.5t124.5 300.5t300.5 124.5h875v-300h-875q-52 0 -88.5 -36.5t-36.5 -88.5t36.5 -88.5t88.5 -36.5h450q176 0 300.5 -124.5t124.5 -300.5t-124.5 -300.5t-300.5 -124.5 h-875z" />
<glyph unicode="T" horiz-adv-x="1450" d="M0 1100v300h1300v-300h-500v-1100h-300v1100h-500z" />
<glyph unicode="U" d="M0 650v750h300v-750q0 -145 117 -247.5t283 -102.5t283 102.5t117 247.5v750h300v-750q0 -269 -205 -459.5t-495 -190.5t-495 190.5t-205 459.5z" />
<glyph unicode="V" d="M0 1400h325l375 -1000l375 1000h325l-525 -1400h-350z" />
<glyph unicode="W" horiz-adv-x="1850" d="M0 500v900h300v-900q0 -83 58.5 -141.5t141.5 -58.5t141.5 58.5t58.5 141.5v900h300v-900q0 -83 58.5 -141.5t141.5 -58.5t141.5 58.5t58.5 141.5v900h300v-900q0 -207 -146.5 -353.5t-353.5 -146.5q-205 0 -350 143q-145 -143 -350 -143q-207 0 -353.5 146.5 t-146.5 353.5z" />
<glyph unicode="X" horiz-adv-x="1350" d="M-50 0l475 702l-475 699h350l299 -441l301 440l350 2l-475 -701l475 -700l-350 -1l-300 443l-300 -443h-350z" />
<glyph unicode="Y" d="M0 1200v200h300v-200q0 -145 117 -247.5t283 -102.5t283 102.5t117 247.5v200h300v-200q0 -269 -205 -459q-150 -140 -345 -177v-564h-300v564q-195 37 -345 177q-205 190 -205 459z" />
<glyph unicode="Z" horiz-adv-x="1450" d="M0 0v300l875 800h-875v300h1300v-300l-875 -800h875v-300h-1300z" />
<glyph unicode="[" horiz-adv-x="650" d="M0 -100v1600h500v-300h-200v-1000h200v-300h-500z" />
<glyph unicode="\" horiz-adv-x="1450" d="M0 1400h350l950 -1400l-351 1z" />
<glyph unicode="]" horiz-adv-x="650" d="M0 -100v300h200v1000h-200v300h500v-1600h-500z" />
<glyph unicode="^" horiz-adv-x="950" d="M0 1500l200 400h400l200 -400h-325l-75 150l-75 -150h-325z" />
<glyph unicode="_" horiz-adv-x="1450" d="M0 -100h1300v-300h-1300v300z" />
<glyph unicode="`" horiz-adv-x="850" d="M0 1900h400l300 -400h-300z" />
<glyph unicode="a" d="M0 700q0 290 190.5 495t459.5 205h750v-1400h-300v1100h-450q-145 0 -247.5 -117t-102.5 -283t102.5 -283t247.5 -117h350v-300h-350q-269 0 -459.5 205t-190.5 495z" />
<glyph unicode="b" horiz-adv-x="1450" d="M0 0v300h875q52 0 88.5 36.5t36.5 88.5t-36.5 88.5t-88.5 36.5h-875v300h875q52 0 88.5 36.5t36.5 88.5t-36.5 88.5t-88.5 36.5h-875v300h875q176 0 300.5 -124.5t124.5 -300.5q0 -158 -101 -275q101 -117 101 -275q0 -176 -124.5 -300.5t-300.5 -124.5h-875z" />
<glyph unicode="c" horiz-adv-x="1450" d="M0 700q0 290 190.5 495t459.5 205h650v-300h-650q-145 0 -247.5 -117t-102.5 -283t102.5 -283t247.5 -117h650v-300h-650q-269 0 -459.5 205t-190.5 495z" />
<glyph unicode="d" horiz-adv-x="1450" d="M0 0v300h650q145 0 247.5 117t102.5 283t-102.5 283t-247.5 117h-650v300h650q269 0 459.5 -205t190.5 -495t-190.5 -495t-459.5 -205h-650z" />
<glyph unicode="e" horiz-adv-x="1450" d="M0 425q0 158 101 275q-101 117 -101 275q0 176 124.5 300.5t300.5 124.5h875v-300h-875q-52 0 -88.5 -36.5t-36.5 -88.5t36.5 -88.5t88.5 -36.5h875v-300h-875q-52 0 -88.5 -36.5t-36.5 -88.5t36.5 -88.5t88.5 -36.5h875v-300h-875q-176 0 -300.5 124.5t-124.5 300.5z " />
<glyph unicode="f" horiz-adv-x="1450" d="M0 0v975q0 176 124.5 300.5t300.5 124.5h875v-300h-875q-52 0 -88.5 -36.5t-36.5 -88.5v-975h-300zM400 550v300h900v-300h-900z" />
<glyph unicode="g" horiz-adv-x="1450" d="M0 700q0 290 190.5 495t459.5 205h650v-300h-650q-145 0 -247.5 -117t-102.5 -283t102.5 -283t247.5 -117h350v250h-200v300h500v-850h-650q-269 0 -459.5 205t-190.5 495z" />
<glyph unicode="h" d="M0 0v1400h300v-550h800v550h300v-1400h-300v550h-800v-550h-300z" />
<glyph unicode="i" horiz-adv-x="450" d="M0 0v1400h300v-1400h-300z" />
<glyph unicode="j" d="M0 650v100h300v-100q0 -145 117 -247.5t283 -102.5t283 102.5t117 247.5v450h-200v300h500v-750q0 -269 -205 -459.5t-495 -190.5t-495 190.5t-205 459.5z" />
<glyph unicode="k" d="M0 0v1400h300v-672l725 672h375l-596 -556l596 -844h-350l-457 647l-293 -274v-373h-300z" />
<glyph unicode="l" horiz-adv-x="1450" d="M0 0v1400h300v-1100h1000v-300h-1300z" />
<glyph unicode="m" horiz-adv-x="1850" d="M0 0v900q0 207 146.5 353.5t353.5 146.5q205 0 350 -143q145 143 350 143q207 0 353.5 -146.5t146.5 -353.5v-900h-300v900q0 83 -58.5 141.5t-141.5 58.5t-141.5 -58.5t-58.5 -141.5v-900h-300v900q0 83 -58.5 141.5t-141.5 58.5t-141.5 -58.5t-58.5 -141.5v-900h-300z " />
<glyph unicode="n" d="M0 0v750q0 269 205 459.5t495 190.5t495 -190.5t205 -459.5v-750h-300v750q0 145 -117 247.5t-283 102.5t-283 -102.5t-117 -247.5v-750h-300z" />
<glyph unicode="o" d="M0 700q0 290 205 495t495 205t495 -205t205 -495t-205 -495t-495 -205t-495 205t-205 495zM300 700q0 -166 117 -283t283 -117t283 117t117 283t-117 283t-283 117t-283 -117t-117 -283z" />
<glyph unicode="p" horiz-adv-x="1450" d="M0 0v800h850q62 0 106 44t44 106t-44 106t-106 44h-850v300h850q186 0 318 -132t132 -318t-132 -318t-318 -132h-550v-500h-300z" />
<glyph unicode="q" d="M0 700q0 290 205 495t495 205t495 -205t205 -495q0 -260 -165 -452l165 -248l-351 1l-44 66q-139 -67 -305 -67q-290 0 -495 205t-205 495zM300 700q0 -166 117 -283t283 -117q72 0 135 22l-185 279h350l57 -85q43 83 43 184q0 166 -117 283t-283 117t-283 -117 t-117 -283z" />
<glyph unicode="r" horiz-adv-x="1450" d="M0 500v300h850q62 0 106 44t44 106t-44 106t-106 44h-850v300h850q186 0 318 -132t132 -318q0 -173 -115 -300q115 -127 115 -300v-350h-300v350q0 62 -44 106t-106 44h-850z" />
<glyph unicode="s" horiz-adv-x="1450" d="M0 0v300h875q52 0 88.5 36.5t36.5 88.5t-36.5 88.5t-88.5 36.5h-450q-176 0 -300.5 124.5t-124.5 300.5t124.5 300.5t300.5 124.5h875v-300h-875q-52 0 -88.5 -36.5t-36.5 -88.5t36.5 -88.5t88.5 -36.5h450q176 0 300.5 -124.5t124.5 -300.5t-124.5 -300.5t-300.5 -124.5 h-875z" />
<glyph unicode="t" horiz-adv-x="1450" d="M0 1100v300h1300v-300h-500v-1100h-300v1100h-500z" />
<glyph unicode="u" d="M0 650v750h300v-750q0 -145 117 -247.5t283 -102.5t283 102.5t117 247.5v750h300v-750q0 -269 -205 -459.5t-495 -190.5t-495 190.5t-205 459.5z" />
<glyph unicode="v" d="M0 1400h325l375 -1000l375 1000h325l-525 -1400h-350z" />
<glyph unicode="w" horiz-adv-x="1850" d="M0 500v900h300v-900q0 -83 58.5 -141.5t141.5 -58.5t141.5 58.5t58.5 141.5v900h300v-900q0 -83 58.5 -141.5t141.5 -58.5t141.5 58.5t58.5 141.5v900h300v-900q0 -207 -146.5 -353.5t-353.5 -146.5q-205 0 -350 143q-145 -143 -350 -143q-207 0 -353.5 146.5 t-146.5 353.5z" />
<glyph unicode="x" horiz-adv-x="1350" d="M-50 0l475 702l-475 699h350l299 -441l301 440l350 2l-475 -701l475 -700l-350 -1l-300 443l-300 -443h-350z" />
<glyph unicode="y" d="M0 1200v200h300v-200q0 -145 117 -247.5t283 -102.5t283 102.5t117 247.5v200h300v-200q0 -269 -205 -459q-150 -140 -345 -177v-564h-300v564q-195 37 -345 177q-205 190 -205 459z" />
<glyph unicode="z" horiz-adv-x="1450" d="M0 0v300l875 800h-875v300h1300v-300l-875 -800h875v-300h-1300z" />
<glyph unicode="{" horiz-adv-x="800" d="M0 552v300h25q52 0 88.5 36.5t36.5 88.5v100q0 176 124.5 300.5t300.5 124.5h75v-300h-75q-52 0 -88.5 -36.5t-36.5 -88.5v-100q0 -158 -101 -275q101 -117 101 -275v-100q0 -52 36.5 -88.5t88.5 -36.5h75v-300h-75q-176 0 -300.5 124.5t-124.5 300.5v100 q0 52 -36.5 88.5t-88.5 36.5h-25z" />
<glyph unicode="|" horiz-adv-x="450" d="M0 -100v1600h300v-1600h-300z" />
<glyph unicode="}" horiz-adv-x="800" d="M0 -98v300h75q52 0 88.5 36.5t36.5 88.5v100q0 158 101 275q-101 117 -101 275v100q0 52 -36.5 88.5t-88.5 36.5h-75v300h75q176 0 300.5 -124.5t124.5 -300.5v-100q0 -52 36.5 -88.5t88.5 -36.5h25v-300h-25q-52 0 -88.5 -36.5t-36.5 -88.5v-100q0 -176 -124.5 -300.5 t-300.5 -124.5h-75z" />
<glyph unicode="~" horiz-adv-x="1150" d="M0 1500v300q77 73 148 99t137 26q77 0 218.5 -49.5t207.5 -49.5q63 0 131 28t156 112v-300q-76 -72 -147 -97.5t-140 -25.5q-72 0 -213.5 48.5t-212.5 48.5q-61 0 -129 -28t-156 -112z" />
<glyph unicode="&#xa1;" horiz-adv-x="450" d="M0 0v1000h300v-1000h-300zM0 1250q0 62 44 106t106 44t106 -44t44 -106t-44 -106t-106 -44t-106 44t-44 106z" />
<glyph unicode="&#xa2;" horiz-adv-x="1450" d="M0 700q0 269 191 460q172 172 409 188v152h300v-150h400v-300h-650q-145 0 -247.5 -102.5t-102.5 -247.5t102.5 -247.5t247.5 -102.5h650v-300h-400v-100h-300v102q-237 16 -409 189q-191 190 -191 459z" />
<glyph unicode="&#xa3;" horiz-adv-x="1450" d="M0 0v300h200v675q0 176 124.5 300.5t300.5 124.5h675v-300h-675q-52 0 -88.5 -36.5t-36.5 -88.5v-675h800v-300h-1300zM600 550v300h700v-300h-700z" />
<glyph unicode="&#xa4;" horiz-adv-x="1450" d="M0 -1l305 451q-80 109 -80 250q0 142 81 250l-306 450h350l195 -287q50 12 105 12q54 0 103 -12l196 289l351 -1l-306 -451q81 -108 81 -250t-81 -250l306 -450l-351 1l-194 286q-50 -12 -105 -12t-105 12l-195 -288h-350zM525 701q0 -52 36.5 -88.5t88.5 -36.5 t88.5 36.5t36.5 88.5t-36.5 88.5t-88.5 36.5t-88.5 -36.5t-36.5 -88.5z" />
<glyph unicode="&#xa5;" d="M0 1200v200h300v-200q0 -145 117 -247.5t283 -102.5t283 102.5t117 247.5v200h300v-200q0 -269 -205 -459q-22 -21 -45 -39v-202h-300v-100h300v-300h-300v-100h-300v100h-300v300h300v100h-300v202q-23 18 -45 39q-205 190 -205 459z" />
<glyph unicode="&#xa6;" horiz-adv-x="450" d="M0 -100v750h300v-750h-300zM0 750v750h300v-750h-300z" />
<glyph unicode="&#xa7;" horiz-adv-x="1450" d="M0 0v300h503q-85 31 -153 100q-85 84 -112 192q-61 30 -113 83q-125 124 -125 300t124.5 300.5t300.5 124.5h875v-300h-503q85 -31 154 -99q84 -85 111 -193q61 -30 114 -82q124 -125 124 -301t-124.5 -300.5t-300.5 -124.5h-875zM300 975q0 -15 3 -29q21 29 47 55 q68 68 153 99h-78q-52 0 -88.5 -36.5t-36.5 -88.5zM525 701q0 -52 36.5 -88.5t88.5 -36.5t88.5 36.5t36.5 88.5t-36.5 88.5t-88.5 36.5t-88.5 -36.5t-36.5 -88.5zM797 300h78q52 0 88.5 36.5t36.5 88.5q0 15 -3 29q-21 -29 -46 -54q-69 -69 -154 -100z" />
<glyph unicode="&#xa8;" horiz-adv-x="950" d="M0 1650q0 62 44 106t106 44t106 -44t44 -106t-44 -106t-106 -44t-106 44t-44 106zM500 1650q0 62 44 106t106 44t106 -44t44 -106t-44 -106t-106 -44t-106 44t-44 106z" />
<glyph unicode="&#xa9;" horiz-adv-x="1200" d="M0 1050q0 228 153.5 389t371.5 161q217 0 371 -161t154 -389t-154 -389t-371 -161q-218 0 -371.5 161t-153.5 389zM100 1050q0 -186 124.5 -318t300.5 -132q153 0 267 100h-317q-134 0 -229.5 102.5t-95.5 247.5t95.5 247.5t229.5 102.5h317q-114 100 -267 100 q-176 0 -300.5 -132t-124.5 -318zM300 1050q0 -83 51.5 -141.5t123.5 -58.5h325v-143q13 12 26 25q124 132 124 318t-124 318q-13 13 -26 25v-143h-325q-72 0 -123.5 -58.5t-51.5 -141.5z" />
<glyph unicode="&#xaa;" horiz-adv-x="1650" d="M0 200v1100q0 200 200 200h1100q200 0 200 -200v-1100q0 -200 -200 -200h-1100q-200 0 -200 200zM25 200q1 -175 175 -175h1101q174 0 174 176v1099q0 175 -175 175h-1100q-174 0 -175 -175v-1100z" />
<glyph unicode="&#xab;" horiz-adv-x="2200" d="M0 525v350l1000 350v-325l-571 -200l571 -200v-325zM1050 525v350l1000 350v-325l-571 -200l571 -200v-325z" />
<glyph unicode="&#xac;" horiz-adv-x="1650" d="M0 200v1100q0 200 200 200h1100q200 0 200 -200v-1100q0 -200 -200 -200h-1100q-200 0 -200 200zM25 200q1 -175 175 -175h1101q174 0 174 176v1099q0 175 -175 175h-1100q-174 0 -175 -175v-1100z" />
<glyph unicode="&#xad;" horiz-adv-x="1050" d="M0 550v300h900v-300h-900z" />
<glyph unicode="&#xae;" horiz-adv-x="1200" d="M0 1050q0 228 153.5 389t371.5 161q217 0 371 -161t154 -389t-154 -389t-371 -161q-218 0 -371.5 161t-153.5 389zM100 1050q0 -186 124.5 -318t300.5 -132q153 0 267 100h-92v175q0 31 -22 53t-53 22h-425v150h425q31 0 53 22t22 53t-22 53t-53 22h-425v90 q-100 -123 -100 -290zM258 1400h367q93 0 159 -66t66 -159q0 -86 -57 -150q57 -63 57 -150v-115q100 123 100 290q0 186 -124.5 318t-300.5 132q-153 0 -267 -100z" />
<glyph unicode="&#xaf;" horiz-adv-x="1650" d="M0 200v1100q0 200 200 200h1100q200 0 200 -200v-1100q0 -200 -200 -200h-1100q-200 0 -200 200zM25 200q1 -175 175 -175h1101q174 0 174 176v1099q0 175 -175 175h-1100q-174 0 -175 -175v-1100z" />
<glyph unicode="&#xb0;" horiz-adv-x="650" d="M0 1150q0 104 73 177t177 73t177 -73t73 -177t-73 -177t-177 -73t-177 73t-73 177zM100 1150q0 -62 44 -106t106 -44t106 44t44 106t-44 106t-106 44t-106 -44t-44 -106z" />
<glyph unicode="&#xb1;" horiz-adv-x="1650" d="M0 200v1100q0 200 200 200h1100q200 0 200 -200v-1100q0 -200 -200 -200h-1100q-200 0 -200 200zM25 200q1 -175 175 -175h1101q174 0 174 176v1099q0 175 -175 175h-1100q-174 0 -175 -175v-1100z" />
<glyph unicode="&#xb2;" horiz-adv-x="1650" d="M0 200v1100q0 200 200 200h1100q200 0 200 -200v-1100q0 -200 -200 -200h-1100q-200 0 -200 200zM25 200q1 -175 175 -175h1101q174 0 174 176v1099q0 175 -175 175h-1100q-174 0 -175 -175v-1100z" />
<glyph unicode="&#xb3;" horiz-adv-x="1650" d="M0 200v1100q0 200 200 200h1100q200 0 200 -200v-1100q0 -200 -200 -200h-1100q-200 0 -200 200zM25 200q1 -175 175 -175h1101q174 0 174 176v1099q0 175 -175 175h-1100q-174 0 -175 -175v-1100z" />
<glyph unicode="&#xb4;" horiz-adv-x="850" d="M0 1500l300 400h400l-400 -400h-300z" />
<glyph unicode="&#xb5;" d="M0 -100v1500h300v-750q0 -145 117 -247.5t283 -102.5t283 102.5t117 247.5v750h300v-750q0 -269 -205 -459.5t-495 -190.5q-226 0 -400 115v-215h-300z" />
<glyph unicode="&#xb6;" horiz-adv-x="1024" d="M93 1086q0 157 107.5 253t285.5 96h443v-70h-127v-1365h-82v1365h-166v-1365h-84v738q-174 8 -275.5 102.5t-101.5 245.5z" />
<glyph unicode="&#xb7;" horiz-adv-x="450" d="M0 700q0 62 44 106t106 44t106 -44t44 -106t-44 -106t-106 -44t-106 44t-44 106z" />
<glyph unicode="&#xb8;" horiz-adv-x="650" d="M0 -100h75q52 0 88.5 36.5t36.5 88.5v75h300v-75q0 -176 -124.5 -300.5t-300.5 -124.5h-75v300z" />
<glyph unicode="&#xb9;" horiz-adv-x="1650" d="M0 200v1100q0 200 200 200h1100q200 0 200 -200v-1100q0 -200 -200 -200h-1100q-200 0 -200 200zM25 200q1 -175 175 -175h1101q174 0 174 176v1099q0 175 -175 175h-1100q-174 0 -175 -175v-1100z" />
<glyph unicode="&#xba;" horiz-adv-x="1650" d="M0 200v1100q0 200 200 200h1100q200 0 200 -200v-1100q0 -200 -200 -200h-1100q-200 0 -200 200zM25 200q1 -175 175 -175h1101q174 0 174 176v1099q0 175 -175 175h-1100q-174 0 -175 -175v-1100z" />
<glyph unicode="&#xbb;" horiz-adv-x="2200" d="M0 175v325l571 200l-571 200v325l1000 -350v-350zM1050 175v325l571 200l-571 200v325l1000 -350v-350z" />
<glyph unicode="&#xbc;" horiz-adv-x="1650" d="M0 200v1100q0 200 200 200h1100q200 0 200 -200v-1100q0 -200 -200 -200h-1100q-200 0 -200 200zM25 200q1 -175 175 -175h1101q174 0 174 176v1099q0 175 -175 175h-1100q-174 0 -175 -175v-1100z" />
<glyph unicode="&#xbd;" horiz-adv-x="1650" d="M0 200v1100q0 200 200 200h1100q200 0 200 -200v-1100q0 -200 -200 -200h-1100q-200 0 -200 200zM25 200q1 -175 175 -175h1101q174 0 174 176v1099q0 175 -175 175h-1100q-174 0 -175 -175v-1100z" />
<glyph unicode="&#xbe;" horiz-adv-x="1650" d="M0 200v1100q0 200 200 200h1100q200 0 200 -200v-1100q0 -200 -200 -200h-1100q-200 0 -200 200zM25 200q1 -175 175 -175h1101q174 0 174 176v1099q0 175 -175 175h-1100q-174 0 -175 -175v-1100z" />
<glyph unicode="&#xbf;" horiz-adv-x="1450" d="M0 425q0 176 124.5 300.5t300.5 124.5h250q52 0 88.5 36.5t36.5 88.5v25h300v-25q0 -176 -124.5 -300.5t-300.5 -124.5h-250q-52 0 -88.5 -36.5t-36.5 -88.5t36.5 -88.5t88.5 -36.5h875v-300h-875q-176 0 -300.5 124.5t-124.5 300.5zM800 1250q0 62 44 106t106 44 t106 -44t44 -106t-44 -106t-106 -44t-106 44t-44 106z" />
<glyph unicode="&#xc0;" d="M0 700q0 290 190.5 495t459.5 205h750v-1400h-300v1100h-450q-145 0 -247.5 -117t-102.5 -283t102.5 -283t247.5 -117h350v-300h-350q-269 0 -459.5 205t-190.5 495zM350 1900h400l300 -400h-300z" />
<glyph unicode="&#xc1;" d="M0 700q0 290 190.5 495t459.5 205h750v-1400h-300v1100h-450q-145 0 -247.5 -117t-102.5 -283t102.5 -283t247.5 -117h350v-300h-350q-269 0 -459.5 205t-190.5 495zM350 1500l300 400h400l-400 -400h-300z" />
<glyph unicode="&#xc2;" d="M0 700q0 290 190.5 495t459.5 205h750v-1400h-300v1100h-450q-145 0 -247.5 -117t-102.5 -283t102.5 -283t247.5 -117h350v-300h-350q-269 0 -459.5 205t-190.5 495zM300 1500l200 400h400l200 -400h-325l-75 150l-75 -150h-325z" />
<glyph unicode="&#xc3;" d="M0 700q0 290 190.5 495t459.5 205h750v-1400h-300v1100h-450q-145 0 -247.5 -117t-102.5 -283t102.5 -283t247.5 -117h350v-300h-350q-269 0 -459.5 205t-190.5 495zM200 1500v300q77 73 148 99t137 26q77 0 218.5 -49.5t207.5 -49.5q63 0 131 28t156 112v-300 q-76 -72 -147 -97.5t-140 -25.5q-72 0 -213.5 48.5t-212.5 48.5q-61 0 -129 -28t-156 -112z" />
<glyph unicode="&#xc4;" d="M0 700q0 290 190.5 495t459.5 205h750v-1400h-300v1100h-450q-145 0 -247.5 -117t-102.5 -283t102.5 -283t247.5 -117h350v-300h-350q-269 0 -459.5 205t-190.5 495zM300 1650q0 62 44 106t106 44t106 -44t44 -106t-44 -106t-106 -44t-106 44t-44 106zM800 1650 q0 62 44 106t106 44t106 -44t44 -106t-44 -106t-106 -44t-106 44t-44 106z" />
<glyph unicode="&#xc5;" d="M0 700q0 290 190.5 495t459.5 205h750v-1400h-300v1100h-450q-145 0 -247.5 -117t-102.5 -283t102.5 -283t247.5 -117h350v-300h-350q-269 0 -459.5 205t-190.5 495zM450 1750q0 104 73 177t177 73t177 -73t73 -177t-73 -177t-177 -73t-177 73t-73 177zM550 1750 q0 -62 44 -106t106 -44t106 44t44 106t-44 106t-106 44t-106 -44t-44 -106z" />
<glyph unicode="&#xc6;" horiz-adv-x="2550" d="M0 700q0 290 190.5 495t459.5 205h1750v-300h-1000v-250h1000v-300h-1000v-250h1000v-300h-1300v1100h-450q-145 0 -247.5 -117t-102.5 -283t102.5 -283t247.5 -117h350v-300h-350q-269 0 -459.5 205t-190.5 495z" />
<glyph unicode="&#xc7;" horiz-adv-x="1450" d="M0 700q0 290 190.5 495t459.5 205h650v-300h-650q-145 0 -247.5 -117t-102.5 -283t102.5 -283t247.5 -117h650v-300h-301q-8 -160 -123 -275q-125 -125 -301 -125h-75v300h75q52 0 89 37q27 27 34 63h-48q-269 0 -459.5 205t-190.5 495z" />
<glyph unicode="&#xc8;" horiz-adv-x="1450" d="M0 425q0 158 101 275q-101 117 -101 275q0 176 124.5 300.5t300.5 124.5h875v-300h-875q-52 0 -88.5 -36.5t-36.5 -88.5t36.5 -88.5t88.5 -36.5h875v-300h-875q-52 0 -88.5 -36.5t-36.5 -88.5t36.5 -88.5t88.5 -36.5h875v-300h-875q-176 0 -300.5 124.5t-124.5 300.5z M300 1900h400l300 -400h-300z" />
<glyph unicode="&#xc9;" horiz-adv-x="1450" d="M0 425q0 158 101 275q-101 117 -101 275q0 176 124.5 300.5t300.5 124.5h875v-300h-875q-52 0 -88.5 -36.5t-36.5 -88.5t36.5 -88.5t88.5 -36.5h875v-300h-875q-52 0 -88.5 -36.5t-36.5 -88.5t36.5 -88.5t88.5 -36.5h875v-300h-875q-176 0 -300.5 124.5t-124.5 300.5z M300 1500l300 400h400l-400 -400h-300z" />
<glyph unicode="&#xca;" horiz-adv-x="1450" d="M0 425q0 158 101 275q-101 117 -101 275q0 176 124.5 300.5t300.5 124.5h875v-300h-875q-52 0 -88.5 -36.5t-36.5 -88.5t36.5 -88.5t88.5 -36.5h875v-300h-875q-52 0 -88.5 -36.5t-36.5 -88.5t36.5 -88.5t88.5 -36.5h875v-300h-875q-176 0 -300.5 124.5t-124.5 300.5z M250 1500l200 400h400l200 -400h-325l-75 150l-75 -150h-325z" />
<glyph unicode="&#xcb;" horiz-adv-x="1450" d="M0 425q0 158 101 275q-101 117 -101 275q0 176 124.5 300.5t300.5 124.5h875v-300h-875q-52 0 -88.5 -36.5t-36.5 -88.5t36.5 -88.5t88.5 -36.5h875v-300h-875q-52 0 -88.5 -36.5t-36.5 -88.5t36.5 -88.5t88.5 -36.5h875v-300h-875q-176 0 -300.5 124.5t-124.5 300.5z M250 1650q0 62 44 106t106 44t106 -44t44 -106t-44 -106t-106 -44t-106 44t-44 106zM750 1650q0 62 44 106t106 44t106 -44t44 -106t-44 -106t-106 -44t-106 44t-44 106z" />
<glyph unicode="&#xcc;" horiz-adv-x="450" d="M-200 1900h400l300 -400h-300zM0 0v1400h300v-1400h-300z" />
<glyph unicode="&#xcd;" horiz-adv-x="450" d="M-200 1500l300 400h400l-400 -400h-300zM0 0v1400h300v-1400h-300z" />
<glyph unicode="&#xce;" horiz-adv-x="450" d="M-250 1500l200 400h400l200 -400h-325l-75 150l-75 -150h-325zM0 0v1400h300v-1400h-300z" />
<glyph unicode="&#xcf;" horiz-adv-x="450" d="M-250 1650q0 62 44 106t106 44t106 -44t44 -106t-44 -106t-106 -44t-106 44t-44 106zM0 0v1400h300v-1400h-300zM250 1650q0 62 44 106t106 44t106 -44t44 -106t-44 -106t-106 -44t-106 44t-44 106z" />
<glyph unicode="&#xd0;" horiz-adv-x="1450" d="M0 550v300h700v-300h-200v-250h150q145 0 247.5 117t102.5 283t-102.5 283t-247.5 117h-450v300h450q269 0 459.5 -205t190.5 -495t-190.5 -495t-459.5 -205h-450v550h-200z" />
<glyph unicode="&#xd1;" d="M0 0v750q0 269 205 459.5t495 190.5t495 -190.5t205 -459.5v-750h-300v750q0 145 -117 247.5t-283 102.5t-283 -102.5t-117 -247.5v-750h-300zM200 1500v300q77 73 148 99t137 26q77 0 218.5 -49.5t207.5 -49.5q63 0 131 28t156 112v-300q-76 -72 -147 -97.5t-140 -25.5 q-72 0 -213.5 48.5t-212.5 48.5q-61 0 -129 -28t-156 -112z" />
<glyph unicode="&#xd2;" d="M0 700q0 290 205 495t495 205t495 -205t205 -495t-205 -495t-495 -205t-495 205t-205 495zM300 700q0 -166 117 -283t283 -117t283 117t117 283t-117 283t-283 117t-283 -117t-117 -283zM350 1900h400l300 -400h-300z" />
<glyph unicode="&#xd3;" d="M0 700q0 290 205 495t495 205t495 -205t205 -495t-205 -495t-495 -205t-495 205t-205 495zM300 700q0 -166 117 -283t283 -117t283 117t117 283t-117 283t-283 117t-283 -117t-117 -283zM350 1500l300 400h400l-400 -400h-300z" />
<glyph unicode="&#xd4;" d="M0 700q0 290 205 495t495 205t495 -205t205 -495t-205 -495t-495 -205t-495 205t-205 495zM300 700q0 -166 117 -283t283 -117t283 117t117 283t-117 283t-283 117t-283 -117t-117 -283zM300 1500l200 400h400l200 -400h-325l-75 150l-75 -150h-325z" />
<glyph unicode="&#xd5;" d="M0 700q0 290 205 495t495 205t495 -205t205 -495t-205 -495t-495 -205t-495 205t-205 495zM200 1500v300q77 73 148 99t137 26q77 0 218.5 -49.5t207.5 -49.5q63 0 131 28t156 112v-300q-76 -72 -147 -97.5t-140 -25.5q-72 0 -213.5 48.5t-212.5 48.5q-61 0 -129 -28 t-156 -112zM300 700q0 -166 117 -283t283 -117t283 117t117 283t-117 283t-283 117t-283 -117t-117 -283z" />
<glyph unicode="&#xd6;" d="M0 700q0 290 205 495t495 205t495 -205t205 -495t-205 -495t-495 -205t-495 205t-205 495zM300 700q0 -166 117 -283t283 -117t283 117t117 283t-117 283t-283 117t-283 -117t-117 -283zM300 1650q0 62 44 106t106 44t106 -44t44 -106t-44 -106t-106 -44t-106 44t-44 106 zM800 1650q0 62 44 106t106 44t106 -44t44 -106t-44 -106t-106 -44t-106 44t-44 106z" />
<glyph unicode="&#xd7;" horiz-adv-x="1150" d="M-50 150l375 551l-375 549h350l199 -291l200 292l351 -1l-375 -550l375 -550l-351 1l-199 291l-200 -292h-350z" />
<glyph unicode="&#xd8;" d="M0 700q0 290 205 495t495 205q142 0 264 -49l35 52l351 -1l-146 -216q196 -202 196 -486q0 -290 -205 -495t-495 -205q-143 0 -266 50l-34 -50h-350l145 215q-195 202 -195 485zM300 700q0 -128 70 -227l418 618q-42 9 -88 9q-166 0 -283 -117t-117 -283zM610 309 q43 -9 90 -9q166 0 283 117t117 283q0 129 -71 229z" />
<glyph unicode="&#xd9;" d="M0 650v750h300v-750q0 -145 117 -247.5t283 -102.5t283 102.5t117 247.5v750h300v-750q0 -269 -205 -459.5t-495 -190.5t-495 190.5t-205 459.5zM350 1900h400l300 -400h-300z" />
<glyph unicode="&#xda;" d="M0 650v750h300v-750q0 -145 117 -247.5t283 -102.5t283 102.5t117 247.5v750h300v-750q0 -269 -205 -459.5t-495 -190.5t-495 190.5t-205 459.5zM350 1500l300 400h400l-400 -400h-300z" />
<glyph unicode="&#xdb;" d="M0 650v750h300v-750q0 -145 117 -247.5t283 -102.5t283 102.5t117 247.5v750h300v-750q0 -269 -205 -459.5t-495 -190.5t-495 190.5t-205 459.5zM300 1500l200 400h400l200 -400h-325l-75 150l-75 -150h-325z" />
<glyph unicode="&#xdc;" d="M0 650v750h300v-750q0 -145 117 -247.5t283 -102.5t283 102.5t117 247.5v750h300v-750q0 -269 -205 -459.5t-495 -190.5t-495 190.5t-205 459.5zM300 1650q0 62 44 106t106 44t106 -44t44 -106t-44 -106t-106 -44t-106 44t-44 106zM800 1650q0 62 44 106t106 44t106 -44 t44 -106t-44 -106t-106 -44t-106 44t-44 106z" />
<glyph unicode="&#xdd;" d="M0 1200v200h300v-200q0 -145 117 -247.5t283 -102.5t283 102.5t117 247.5v200h300v-200q0 -269 -205 -459q-150 -140 -345 -177v-564h-300v564q-195 37 -345 177q-205 190 -205 459zM350 1500l300 400h400l-400 -400h-300z" />
<glyph unicode="&#xde;" horiz-adv-x="1450" d="M0 0v550h850q62 0 106 44t44 106t-44 106t-106 44h-850v550h300v-250h550q186 0 318 -132t132 -318t-132 -318t-318 -132h-550v-250h-300z" />
<glyph unicode="&#xdf;" horiz-adv-x="1450" d="M0 975q0 176 124.5 300.5t300.5 124.5h450q176 0 300.5 -124.5t124.5 -300.5q0 -158 -101 -275q101 -117 101 -275q0 -176 -124.5 -300.5t-300.5 -124.5h-375v300h375q52 0 88.5 36.5t36.5 88.5t-36.5 88.5t-88.5 36.5h-375v300h375q52 0 88.5 36.5t36.5 88.5t-36.5 88.5 t-88.5 36.5h-450q-52 0 -88.5 -36.5t-36.5 -88.5v-974l-299 -1z" />
<glyph unicode="&#xe0;" d="M0 700q0 290 190.5 495t459.5 205h750v-1400h-300v1100h-450q-145 0 -247.5 -117t-102.5 -283t102.5 -283t247.5 -117h350v-300h-350q-269 0 -459.5 205t-190.5 495zM350 1900h400l300 -400h-300z" />
<glyph unicode="&#xe1;" d="M0 700q0 290 190.5 495t459.5 205h750v-1400h-300v1100h-450q-145 0 -247.5 -117t-102.5 -283t102.5 -283t247.5 -117h350v-300h-350q-269 0 -459.5 205t-190.5 495zM350 1500l300 400h400l-400 -400h-300z" />
<glyph unicode="&#xe2;" d="M0 700q0 290 190.5 495t459.5 205h750v-1400h-300v1100h-450q-145 0 -247.5 -117t-102.5 -283t102.5 -283t247.5 -117h350v-300h-350q-269 0 -459.5 205t-190.5 495zM300 1500l200 400h400l200 -400h-325l-75 150l-75 -150h-325z" />
<glyph unicode="&#xe3;" d="M0 700q0 290 190.5 495t459.5 205h750v-1400h-300v1100h-450q-145 0 -247.5 -117t-102.5 -283t102.5 -283t247.5 -117h350v-300h-350q-269 0 -459.5 205t-190.5 495zM200 1500v300q77 73 148 99t137 26q77 0 218.5 -49.5t207.5 -49.5q63 0 131 28t156 112v-300 q-76 -72 -147 -97.5t-140 -25.5q-72 0 -213.5 48.5t-212.5 48.5q-61 0 -129 -28t-156 -112z" />
<glyph unicode="&#xe4;" d="M0 700q0 290 190.5 495t459.5 205h750v-1400h-300v1100h-450q-145 0 -247.5 -117t-102.5 -283t102.5 -283t247.5 -117h350v-300h-350q-269 0 -459.5 205t-190.5 495zM300 1650q0 62 44 106t106 44t106 -44t44 -106t-44 -106t-106 -44t-106 44t-44 106zM800 1650 q0 62 44 106t106 44t106 -44t44 -106t-44 -106t-106 -44t-106 44t-44 106z" />
<glyph unicode="&#xe5;" d="M0 700q0 290 190.5 495t459.5 205h750v-1400h-300v1100h-450q-145 0 -247.5 -117t-102.5 -283t102.5 -283t247.5 -117h350v-300h-350q-269 0 -459.5 205t-190.5 495zM450 1750q0 104 73 177t177 73t177 -73t73 -177t-73 -177t-177 -73t-177 73t-73 177zM550 1750 q0 -62 44 -106t106 -44t106 44t44 106t-44 106t-106 44t-106 -44t-44 -106z" />
<glyph unicode="&#xe6;" horiz-adv-x="2550" d="M0 700q0 290 190.5 495t459.5 205h1750v-300h-1000v-250h1000v-300h-1000v-250h1000v-300h-1300v1100h-450q-145 0 -247.5 -117t-102.5 -283t102.5 -283t247.5 -117h350v-300h-350q-269 0 -459.5 205t-190.5 495z" />
<glyph unicode="&#xe7;" horiz-adv-x="1450" d="M0 700q0 290 190.5 495t459.5 205h650v-300h-650q-145 0 -247.5 -117t-102.5 -283t102.5 -283t247.5 -117h650v-300h-301q-8 -160 -123 -275q-125 -125 -301 -125h-75v300h75q52 0 89 37q27 27 34 63h-48q-269 0 -459.5 205t-190.5 495z" />
<glyph unicode="&#xe8;" horiz-adv-x="1450" d="M0 425q0 158 101 275q-101 117 -101 275q0 176 124.5 300.5t300.5 124.5h875v-300h-875q-52 0 -88.5 -36.5t-36.5 -88.5t36.5 -88.5t88.5 -36.5h875v-300h-875q-52 0 -88.5 -36.5t-36.5 -88.5t36.5 -88.5t88.5 -36.5h875v-300h-875q-176 0 -300.5 124.5t-124.5 300.5z M300 1900h400l300 -400h-300z" />
<glyph unicode="&#xe9;" horiz-adv-x="1450" d="M0 425q0 158 101 275q-101 117 -101 275q0 176 124.5 300.5t300.5 124.5h875v-300h-875q-52 0 -88.5 -36.5t-36.5 -88.5t36.5 -88.5t88.5 -36.5h875v-300h-875q-52 0 -88.5 -36.5t-36.5 -88.5t36.5 -88.5t88.5 -36.5h875v-300h-875q-176 0 -300.5 124.5t-124.5 300.5z M300 1500l300 400h400l-400 -400h-300z" />
<glyph unicode="&#xea;" horiz-adv-x="1450" d="M0 425q0 158 101 275q-101 117 -101 275q0 176 124.5 300.5t300.5 124.5h875v-300h-875q-52 0 -88.5 -36.5t-36.5 -88.5t36.5 -88.5t88.5 -36.5h875v-300h-875q-52 0 -88.5 -36.5t-36.5 -88.5t36.5 -88.5t88.5 -36.5h875v-300h-875q-176 0 -300.5 124.5t-124.5 300.5z M250 1500l200 400h400l200 -400h-325l-75 150l-75 -150h-325z" />
<glyph unicode="&#xeb;" horiz-adv-x="1450" d="M0 425q0 158 101 275q-101 117 -101 275q0 176 124.5 300.5t300.5 124.5h875v-300h-875q-52 0 -88.5 -36.5t-36.5 -88.5t36.5 -88.5t88.5 -36.5h875v-300h-875q-52 0 -88.5 -36.5t-36.5 -88.5t36.5 -88.5t88.5 -36.5h875v-300h-875q-176 0 -300.5 124.5t-124.5 300.5z M250 1650q0 62 44 106t106 44t106 -44t44 -106t-44 -106t-106 -44t-106 44t-44 106zM750 1650q0 62 44 106t106 44t106 -44t44 -106t-44 -106t-106 -44t-106 44t-44 106z" />
<glyph unicode="&#xec;" horiz-adv-x="450" d="M-200 1900h400l300 -400h-300zM0 0v1400h300v-1400h-300z" />
<glyph unicode="&#xed;" horiz-adv-x="450" d="M-200 1500l300 400h400l-400 -400h-300zM0 0v1400h300v-1400h-300z" />
<glyph unicode="&#xee;" horiz-adv-x="450" d="M-250 1500l200 400h400l200 -400h-325l-75 150l-75 -150h-325zM0 0v1400h300v-1400h-300z" />
<glyph unicode="&#xef;" horiz-adv-x="450" d="M-250 1650q0 62 44 106t106 44t106 -44t44 -106t-44 -106t-106 -44t-106 44t-44 106zM0 0v1400h300v-1400h-300zM250 1650q0 62 44 106t106 44t106 -44t44 -106t-44 -106t-106 -44t-106 44t-44 106z" />
<glyph unicode="&#xf0;" horiz-adv-x="1450" d="M0 550v300h700v-300h-200v-250h150q145 0 247.5 117t102.5 283t-102.5 283t-247.5 117h-450v300h450q269 0 459.5 -205t190.5 -495t-190.5 -495t-459.5 -205h-450v550h-200z" />
<glyph unicode="&#xf1;" d="M0 0v750q0 269 205 459.5t495 190.5t495 -190.5t205 -459.5v-750h-300v750q0 145 -117 247.5t-283 102.5t-283 -102.5t-117 -247.5v-750h-300zM200 1500v300q77 73 148 99t137 26q77 0 218.5 -49.5t207.5 -49.5q63 0 131 28t156 112v-300q-76 -72 -147 -97.5t-140 -25.5 q-72 0 -213.5 48.5t-212.5 48.5q-61 0 -129 -28t-156 -112z" />
<glyph unicode="&#xf2;" d="M0 700q0 290 205 495t495 205t495 -205t205 -495t-205 -495t-495 -205t-495 205t-205 495zM300 700q0 -166 117 -283t283 -117t283 117t117 283t-117 283t-283 117t-283 -117t-117 -283zM350 1900h400l300 -400h-300z" />
<glyph unicode="&#xf3;" d="M0 700q0 290 205 495t495 205t495 -205t205 -495t-205 -495t-495 -205t-495 205t-205 495zM300 700q0 -166 117 -283t283 -117t283 117t117 283t-117 283t-283 117t-283 -117t-117 -283zM350 1500l300 400h400l-400 -400h-300z" />
<glyph unicode="&#xf4;" d="M0 700q0 290 205 495t495 205t495 -205t205 -495t-205 -495t-495 -205t-495 205t-205 495zM300 700q0 -166 117 -283t283 -117t283 117t117 283t-117 283t-283 117t-283 -117t-117 -283zM300 1500l200 400h400l200 -400h-325l-75 150l-75 -150h-325z" />
<glyph unicode="&#xf5;" d="M0 700q0 290 205 495t495 205t495 -205t205 -495t-205 -495t-495 -205t-495 205t-205 495zM200 1500v300q77 73 148 99t137 26q77 0 218.5 -49.5t207.5 -49.5q63 0 131 28t156 112v-300q-76 -72 -147 -97.5t-140 -25.5q-72 0 -213.5 48.5t-212.5 48.5q-61 0 -129 -28 t-156 -112zM300 700q0 -166 117 -283t283 -117t283 117t117 283t-117 283t-283 117t-283 -117t-117 -283z" />
<glyph unicode="&#xf6;" d="M0 700q0 290 205 495t495 205t495 -205t205 -495t-205 -495t-495 -205t-495 205t-205 495zM300 700q0 -166 117 -283t283 -117t283 117t117 283t-117 283t-283 117t-283 -117t-117 -283zM300 1650q0 62 44 106t106 44t106 -44t44 -106t-44 -106t-106 -44t-106 44t-44 106 zM800 1650q0 62 44 106t106 44t106 -44t44 -106t-44 -106t-106 -44t-106 44t-44 106z" />
<glyph unicode="&#xf7;" horiz-adv-x="1050" d="M0 550v300h900v-300h-900zM300 300q0 62 44 106t106 44t106 -44t44 -106t-44 -106t-106 -44t-106 44t-44 106zM300 1100q0 62 44 106t106 44t106 -44t44 -106t-44 -106t-106 -44t-106 44t-44 106z" />
<glyph unicode="&#xf8;" d="M0 700q0 290 205 495t495 205q142 0 264 -49l35 52l351 -1l-146 -216q196 -202 196 -486q0 -290 -205 -495t-495 -205q-143 0 -266 50l-34 -50h-350l145 215q-195 202 -195 485zM300 700q0 -128 70 -227l418 618q-42 9 -88 9q-166 0 -283 -117t-117 -283zM610 309 q43 -9 90 -9q166 0 283 117t117 283q0 129 -71 229z" />
<glyph unicode="&#xf9;" d="M0 650v750h300v-750q0 -145 117 -247.5t283 -102.5t283 102.5t117 247.5v750h300v-750q0 -269 -205 -459.5t-495 -190.5t-495 190.5t-205 459.5zM350 1900h400l300 -400h-300z" />
<glyph unicode="&#xfa;" d="M0 650v750h300v-750q0 -145 117 -247.5t283 -102.5t283 102.5t117 247.5v750h300v-750q0 -269 -205 -459.5t-495 -190.5t-495 190.5t-205 459.5zM350 1500l300 400h400l-400 -400h-300z" />
<glyph unicode="&#xfb;" d="M0 650v750h300v-750q0 -145 117 -247.5t283 -102.5t283 102.5t117 247.5v750h300v-750q0 -269 -205 -459.5t-495 -190.5t-495 190.5t-205 459.5zM300 1500l200 400h400l200 -400h-325l-75 150l-75 -150h-325z" />
<glyph unicode="&#xfc;" d="M0 650v750h300v-750q0 -145 117 -247.5t283 -102.5t283 102.5t117 247.5v750h300v-750q0 -269 -205 -459.5t-495 -190.5t-495 190.5t-205 459.5zM300 1650q0 62 44 106t106 44t106 -44t44 -106t-44 -106t-106 -44t-106 44t-44 106zM800 1650q0 62 44 106t106 44t106 -44 t44 -106t-44 -106t-106 -44t-106 44t-44 106z" />
<glyph unicode="&#xfd;" d="M0 1200v200h300v-200q0 -145 117 -247.5t283 -102.5t283 102.5t117 247.5v200h300v-200q0 -269 -205 -459q-150 -140 -345 -177v-564h-300v564q-195 37 -345 177q-205 190 -205 459zM350 1500l300 400h400l-400 -400h-300z" />
<glyph unicode="&#xfe;" horiz-adv-x="1450" d="M0 0v550h850q62 0 106 44t44 106t-44 106t-106 44h-850v550h300v-250h550q186 0 318 -132t132 -318t-132 -318t-318 -132h-550v-250h-300z" />
<glyph unicode="&#xff;" d="M0 1200v200h300v-200q0 -145 117 -247.5t283 -102.5t283 102.5t117 247.5v200h300v-200q0 -269 -205 -459q-150 -140 -345 -177v-564h-300v564q-195 37 -345 177q-205 190 -205 459zM300 1650q0 62 44 106t106 44t106 -44t44 -106t-44 -106t-106 -44t-106 44t-44 106z M800 1650q0 62 44 106t106 44t106 -44t44 -106t-44 -106t-106 -44t-106 44t-44 106z" />
<glyph unicode="&#x152;" horiz-adv-x="2550" d="M0 700q0 290 205 495t495 205q275 0 474 -185q22 32 51 61q124 124 300 124h875v-300h-875q-52 0 -88.5 -36.5t-36.5 -88.5t36.5 -88.5t88.5 -36.5h875v-300h-875q-52 0 -88.5 -36.5t-36.5 -88.5t36.5 -88.5t88.5 -36.5h875v-300h-875q-176 0 -300 125q-29 28 -51 60 q-199 -185 -474 -185q-290 0 -495 205t-205 495zM300 700q0 -166 117 -283t283 -117t283 117t117 283t-117 283t-283 117t-283 -117t-117 -283z" />
<glyph unicode="&#x153;" horiz-adv-x="2550" d="M0 700q0 290 205 495t495 205q275 0 474 -185q22 32 51 61q124 124 300 124h875v-300h-875q-52 0 -88.5 -36.5t-36.5 -88.5t36.5 -88.5t88.5 -36.5h875v-300h-875q-52 0 -88.5 -36.5t-36.5 -88.5t36.5 -88.5t88.5 -36.5h875v-300h-875q-176 0 -300 125q-29 28 -51 60 q-199 -185 -474 -185q-290 0 -495 205t-205 495zM300 700q0 -166 117 -283t283 -117t283 117t117 283t-117 283t-283 117t-283 -117t-117 -283z" />
<glyph unicode="&#x2c6;" horiz-adv-x="950" d="M0 1500l200 400h400l200 -400h-325l-75 150l-75 -150h-325z" />
<glyph unicode="&#x2dc;" horiz-adv-x="1150" d="M0 1500v300q77 73 148 99t137 26q77 0 218.5 -49.5t207.5 -49.5q63 0 131 28t156 112v-300q-76 -72 -147 -97.5t-140 -25.5q-72 0 -213.5 48.5t-212.5 48.5q-61 0 -129 -28t-156 -112z" />
<glyph unicode="&#x2000;" horiz-adv-x="1000" />
<glyph unicode="&#x2001;" horiz-adv-x="2000" />
<glyph unicode="&#x2002;" horiz-adv-x="1000" />
<glyph unicode="&#x2003;" horiz-adv-x="2000" />
<glyph unicode="&#x2004;" horiz-adv-x="666" />
<glyph unicode="&#x2005;" horiz-adv-x="500" />
<glyph unicode="&#x2006;" horiz-adv-x="333" />
<glyph unicode="&#x2007;" horiz-adv-x="333" />
<glyph unicode="&#x2008;" horiz-adv-x="250" />
<glyph unicode="&#x2009;" horiz-adv-x="400" />
<glyph unicode="&#x200a;" horiz-adv-x="111" />
<glyph unicode="&#x2010;" horiz-adv-x="1050" d="M0 550v300h900v-300h-900z" />
<glyph unicode="&#x2011;" horiz-adv-x="1050" d="M0 550v300h900v-300h-900z" />
<glyph unicode="&#x2012;" horiz-adv-x="1050" d="M0 550v300h900v-300h-900z" />
<glyph unicode="&#x2013;" horiz-adv-x="1150" d="M0 550v300h1000v-300h-1000z" />
<glyph unicode="&#x2014;" horiz-adv-x="1250" d="M0 550v300h1100v-300h-1100z" />
<glyph unicode="&#x2018;" horiz-adv-x="450" d="M0 1050q0 50 50 200l50 150h200v-350q0 -62 -44 -106t-106 -44t-106 44t-44 106z" />
<glyph unicode="&#x2019;" horiz-adv-x="450" d="M0 900v350q0 62 44 106t106 44t106 -44t44 -106q0 -50 -50 -200l-50 -150h-200z" />
<glyph unicode="&#x201a;" horiz-adv-x="450" d="M0 150q0 62 44 106t106 44t106 -44t44 -106q0 -50 -50 -200l-50 -150h-200v350z" />
<glyph unicode="&#x201c;" horiz-adv-x="800" d="M0 1050q0 50 50 200l50 150h200v-350q0 -62 -44 -106t-106 -44t-106 44t-44 106zM350 1050q0 50 50 200l50 150h200v-350q0 -62 -44 -106t-106 -44t-106 44t-44 106z" />
<glyph unicode="&#x201d;" horiz-adv-x="800" d="M0 900v350q0 62 44 106t106 44t106 -44t44 -106q0 -50 -50 -200l-50 -150h-200zM350 900v350q0 62 44 106t106 44t106 -44t44 -106q0 -50 -50 -200l-50 -150h-200z" />
<glyph unicode="&#x201e;" horiz-adv-x="800" d="M0 150q0 62 44 106t106 44t106 -44t44 -106q0 -50 -50 -200l-50 -150h-200v350zM350 150q0 62 44 106t106 44t106 -44t44 -106q0 -50 -50 -200l-50 -150h-200v350z" />
<glyph unicode="&#x2022;" horiz-adv-x="1024" d="M216 718q0 123 87 209t210 86q122 0 208.5 -86.5t86.5 -208.5t-87.5 -209.5t-209.5 -87.5q-123 0 -209 87t-86 210z" />
<glyph unicode="&#x2026;" horiz-adv-x="1150" d="M0 150q0 62 44 106t106 44t106 -44t44 -106t-44 -106t-106 -44t-106 44t-44 106zM350 150q0 62 44 106t106 44t106 -44t44 -106t-44 -106t-106 -44t-106 44t-44 106zM700 150q0 62 44 106t106 44t106 -44t44 -106t-44 -106t-106 -44t-106 44t-44 106z" />
<glyph unicode="&#x202f;" horiz-adv-x="400" />
<glyph unicode="&#x2039;" horiz-adv-x="1150" d="M0 525v350l1000 350v-325l-571 -200l571 -200v-325z" />
<glyph unicode="&#x203a;" horiz-adv-x="1150" d="M0 175v325l571 200l-571 200v325l1000 -350v-350z" />
<glyph unicode="&#x205f;" horiz-adv-x="500" />
<glyph unicode="&#x20ac;" horiz-adv-x="1450" d="M0 425v550q0 176 124.5 300.5t300.5 124.5h875v-300h-875q-52 0 -88.5 -36.5t-36.5 -88.5v-550q0 -52 36.5 -88.5t88.5 -36.5h875v-300h-875q-176 0 -300.5 124.5t-124.5 300.5zM400 375v300h700v-300h-700zM400 725v300h700v-300h-700z" />
<glyph unicode="&#x2122;" horiz-adv-x="1700" d="M0 1250v150h650v-150h-250v-550h-150v550h-250zM700 700v450q0 104 73.5 177t176.5 73t175 -71q73 71 175 71q104 0 177 -73t73 -177v-450h-150v450q0 42 -29 71t-71 29q-41 0 -70.5 -29t-29.5 -71v-450h-150v450q0 42 -29 71t-71 29q-41 0 -70.5 -29t-29.5 -71v-450 h-150z" />
<glyph unicode="&#x25fc;" horiz-adv-x="1400" d="M0 0v1400h1400v-1400h-1400z" />
</font>
</defs>
</svg>
